<mxfile host="app.diagrams.net" agent="Mozilla/5.0 (Windows NT 10.0; Win64; x64) AppleWebKit/537.36 (KHTML, like Gecko) Chrome/127.0.0.0 Safari/537.36" version="24.7.7">
  <diagram name="Página-1" id="adHb8zR-ypTLaTCmlVY4">
    <mxGraphModel grid="1" page="1" gridSize="10" guides="1" tooltips="1" connect="1" arrows="1" fold="1" pageScale="1" pageWidth="827" pageHeight="1169" math="0" shadow="0">
      <root>
        <mxCell id="0" />
        <mxCell id="1" parent="0" />
        <mxCell id="e7pmj6wEE7XBvEUKX5FL-24" style="edgeStyle=orthogonalEdgeStyle;rounded=1;orthogonalLoop=1;jettySize=auto;html=1;exitX=1;exitY=0.3333333333333333;exitDx=0;exitDy=0;exitPerimeter=0;entryX=0;entryY=0.75;entryDx=0;entryDy=0;fillColor=#ffe6cc;strokeColor=#d79b00;curved=0;" edge="1" parent="1" source="e7pmj6wEE7XBvEUKX5FL-1" target="e7pmj6wEE7XBvEUKX5FL-10">
          <mxGeometry relative="1" as="geometry">
            <mxPoint x="160" y="290" as="targetPoint" />
            <Array as="points">
              <mxPoint x="110" y="660" />
              <mxPoint x="220" y="660" />
              <mxPoint x="220" y="305" />
            </Array>
          </mxGeometry>
        </mxCell>
        <mxCell id="e7pmj6wEE7XBvEUKX5FL-31" style="edgeStyle=orthogonalEdgeStyle;rounded=1;orthogonalLoop=1;jettySize=auto;html=1;exitX=1;exitY=0.3333333333333333;exitDx=0;exitDy=0;exitPerimeter=0;entryX=0;entryY=0.5;entryDx=0;entryDy=0;fillColor=#ffe6cc;strokeColor=#d79b00;curved=0;" edge="1" parent="1" source="e7pmj6wEE7XBvEUKX5FL-1" target="e7pmj6wEE7XBvEUKX5FL-11">
          <mxGeometry relative="1" as="geometry">
            <Array as="points">
              <mxPoint x="220" y="660" />
              <mxPoint x="220" y="380" />
            </Array>
          </mxGeometry>
        </mxCell>
        <mxCell id="e7pmj6wEE7XBvEUKX5FL-34" style="edgeStyle=orthogonalEdgeStyle;rounded=1;orthogonalLoop=1;jettySize=auto;html=1;exitX=1;exitY=0.3333333333333333;exitDx=0;exitDy=0;exitPerimeter=0;entryX=0;entryY=0.25;entryDx=0;entryDy=0;fillColor=#ffe6cc;strokeColor=#d79b00;curved=0;" edge="1" parent="1" source="e7pmj6wEE7XBvEUKX5FL-1" target="e7pmj6wEE7XBvEUKX5FL-13">
          <mxGeometry relative="1" as="geometry">
            <Array as="points">
              <mxPoint x="220" y="660" />
              <mxPoint x="220" y="505" />
            </Array>
          </mxGeometry>
        </mxCell>
        <mxCell id="e7pmj6wEE7XBvEUKX5FL-43" style="edgeStyle=orthogonalEdgeStyle;rounded=1;orthogonalLoop=1;jettySize=auto;html=1;exitX=1;exitY=0.3333333333333333;exitDx=0;exitDy=0;exitPerimeter=0;entryX=0;entryY=0.75;entryDx=0;entryDy=0;fillColor=#ffe6cc;strokeColor=#d79b00;curved=0;" edge="1" parent="1" source="e7pmj6wEE7XBvEUKX5FL-1" target="e7pmj6wEE7XBvEUKX5FL-11">
          <mxGeometry relative="1" as="geometry">
            <Array as="points">
              <mxPoint x="220" y="660" />
              <mxPoint x="220" y="395" />
            </Array>
          </mxGeometry>
        </mxCell>
        <mxCell id="e7pmj6wEE7XBvEUKX5FL-50" style="edgeStyle=orthogonalEdgeStyle;rounded=1;orthogonalLoop=1;jettySize=auto;html=1;exitX=1;exitY=0.3333333333333333;exitDx=0;exitDy=0;exitPerimeter=0;entryX=0;entryY=0.75;entryDx=0;entryDy=0;fillColor=#ffe6cc;strokeColor=#d79b00;curved=0;" edge="1" parent="1" source="e7pmj6wEE7XBvEUKX5FL-1" target="e7pmj6wEE7XBvEUKX5FL-41">
          <mxGeometry relative="1" as="geometry">
            <Array as="points">
              <mxPoint x="220" y="660" />
              <mxPoint x="220" y="645" />
            </Array>
          </mxGeometry>
        </mxCell>
        <mxCell id="e7pmj6wEE7XBvEUKX5FL-1" value="Docencia" style="shape=umlActor;verticalLabelPosition=bottom;verticalAlign=top;html=1;outlineConnect=0;" vertex="1" parent="1">
          <mxGeometry x="80" y="640" width="30" height="60" as="geometry" />
        </mxCell>
        <mxCell id="e7pmj6wEE7XBvEUKX5FL-25" style="edgeStyle=orthogonalEdgeStyle;rounded=1;orthogonalLoop=1;jettySize=auto;html=1;exitX=1;exitY=0.3333333333333333;exitDx=0;exitDy=0;exitPerimeter=0;entryX=0;entryY=0.5;entryDx=0;entryDy=0;fillColor=#e1d5e7;strokeColor=#9673a6;curved=0;" edge="1" parent="1" source="e7pmj6wEE7XBvEUKX5FL-2" target="e7pmj6wEE7XBvEUKX5FL-10">
          <mxGeometry relative="1" as="geometry">
            <Array as="points">
              <mxPoint x="130" y="360" />
              <mxPoint x="130" y="290" />
            </Array>
          </mxGeometry>
        </mxCell>
        <mxCell id="e7pmj6wEE7XBvEUKX5FL-30" style="edgeStyle=orthogonalEdgeStyle;rounded=1;orthogonalLoop=1;jettySize=auto;html=1;exitX=1;exitY=0.3333333333333333;exitDx=0;exitDy=0;exitPerimeter=0;entryX=0;entryY=0.5;entryDx=0;entryDy=0;fillColor=#e1d5e7;strokeColor=#9673a6;curved=0;" edge="1" parent="1" source="e7pmj6wEE7XBvEUKX5FL-2" target="e7pmj6wEE7XBvEUKX5FL-11">
          <mxGeometry relative="1" as="geometry">
            <Array as="points">
              <mxPoint x="130" y="360" />
              <mxPoint x="130" y="380" />
            </Array>
          </mxGeometry>
        </mxCell>
        <mxCell id="e7pmj6wEE7XBvEUKX5FL-32" style="edgeStyle=orthogonalEdgeStyle;rounded=1;orthogonalLoop=1;jettySize=auto;html=1;exitX=1;exitY=0.3333333333333333;exitDx=0;exitDy=0;exitPerimeter=0;entryX=0;entryY=0.5;entryDx=0;entryDy=0;fillColor=#e1d5e7;strokeColor=#9673a6;curved=0;" edge="1" parent="1" source="e7pmj6wEE7XBvEUKX5FL-2" target="e7pmj6wEE7XBvEUKX5FL-12">
          <mxGeometry relative="1" as="geometry">
            <Array as="points">
              <mxPoint x="130" y="360" />
              <mxPoint x="130" y="450" />
            </Array>
          </mxGeometry>
        </mxCell>
        <mxCell id="e7pmj6wEE7XBvEUKX5FL-33" style="edgeStyle=orthogonalEdgeStyle;rounded=1;orthogonalLoop=1;jettySize=auto;html=1;exitX=1;exitY=0.3333333333333333;exitDx=0;exitDy=0;exitPerimeter=0;entryX=0;entryY=0.5;entryDx=0;entryDy=0;fillColor=#e1d5e7;strokeColor=#9673a6;curved=0;" edge="1" parent="1" source="e7pmj6wEE7XBvEUKX5FL-2" target="e7pmj6wEE7XBvEUKX5FL-13">
          <mxGeometry relative="1" as="geometry">
            <Array as="points">
              <mxPoint x="130" y="520" />
            </Array>
          </mxGeometry>
        </mxCell>
        <mxCell id="e7pmj6wEE7XBvEUKX5FL-48" style="edgeStyle=orthogonalEdgeStyle;rounded=1;orthogonalLoop=1;jettySize=auto;html=1;exitX=1;exitY=0.3333333333333333;exitDx=0;exitDy=0;exitPerimeter=0;entryX=0;entryY=0.5;entryDx=0;entryDy=0;fillColor=#e1d5e7;strokeColor=#9673a6;curved=0;" edge="1" parent="1" source="e7pmj6wEE7XBvEUKX5FL-2" target="e7pmj6wEE7XBvEUKX5FL-41">
          <mxGeometry relative="1" as="geometry">
            <Array as="points">
              <mxPoint x="130" y="360" />
              <mxPoint x="130" y="630" />
            </Array>
          </mxGeometry>
        </mxCell>
        <mxCell id="e7pmj6wEE7XBvEUKX5FL-2" value="Convivencia Escolar" style="shape=umlActor;verticalLabelPosition=bottom;verticalAlign=top;html=1;outlineConnect=0;" vertex="1" parent="1">
          <mxGeometry x="80" y="340" width="30" height="60" as="geometry" />
        </mxCell>
        <mxCell id="e7pmj6wEE7XBvEUKX5FL-26" style="edgeStyle=orthogonalEdgeStyle;rounded=1;orthogonalLoop=1;jettySize=auto;html=1;exitX=0;exitY=0.3333333333333333;exitDx=0;exitDy=0;exitPerimeter=0;entryX=1;entryY=0.5;entryDx=0;entryDy=0;fillColor=#d5e8d4;strokeColor=#82b366;curved=0;" edge="1" parent="1" source="e7pmj6wEE7XBvEUKX5FL-4" target="e7pmj6wEE7XBvEUKX5FL-10">
          <mxGeometry relative="1" as="geometry" />
        </mxCell>
        <mxCell id="e7pmj6wEE7XBvEUKX5FL-27" style="edgeStyle=orthogonalEdgeStyle;rounded=1;orthogonalLoop=1;jettySize=auto;html=1;exitX=0;exitY=0.3333333333333333;exitDx=0;exitDy=0;exitPerimeter=0;entryX=1;entryY=0.5;entryDx=0;entryDy=0;fillColor=#d5e8d4;strokeColor=#82b366;curved=0;" edge="1" parent="1" source="e7pmj6wEE7XBvEUKX5FL-4" target="e7pmj6wEE7XBvEUKX5FL-13">
          <mxGeometry relative="1" as="geometry" />
        </mxCell>
        <mxCell id="e7pmj6wEE7XBvEUKX5FL-28" style="edgeStyle=orthogonalEdgeStyle;rounded=1;orthogonalLoop=1;jettySize=auto;html=1;exitX=0;exitY=0.3333333333333333;exitDx=0;exitDy=0;exitPerimeter=0;entryX=1;entryY=0.5;entryDx=0;entryDy=0;fillColor=#d5e8d4;strokeColor=#82b366;curved=0;" edge="1" parent="1" source="e7pmj6wEE7XBvEUKX5FL-4" target="e7pmj6wEE7XBvEUKX5FL-12">
          <mxGeometry relative="1" as="geometry" />
        </mxCell>
        <mxCell id="e7pmj6wEE7XBvEUKX5FL-29" style="edgeStyle=orthogonalEdgeStyle;rounded=1;orthogonalLoop=1;jettySize=auto;html=1;exitX=0;exitY=0.3333333333333333;exitDx=0;exitDy=0;exitPerimeter=0;entryX=1;entryY=0.5;entryDx=0;entryDy=0;fillColor=#d5e8d4;strokeColor=#82b366;curved=0;" edge="1" parent="1" source="e7pmj6wEE7XBvEUKX5FL-4" target="e7pmj6wEE7XBvEUKX5FL-11">
          <mxGeometry relative="1" as="geometry" />
        </mxCell>
        <mxCell id="e7pmj6wEE7XBvEUKX5FL-47" style="edgeStyle=orthogonalEdgeStyle;rounded=1;orthogonalLoop=1;jettySize=auto;html=1;exitX=0;exitY=0.3333333333333333;exitDx=0;exitDy=0;exitPerimeter=0;entryX=1;entryY=0.5;entryDx=0;entryDy=0;fillColor=#d5e8d4;strokeColor=#82b366;curved=0;" edge="1" parent="1" source="e7pmj6wEE7XBvEUKX5FL-4" target="e7pmj6wEE7XBvEUKX5FL-41">
          <mxGeometry relative="1" as="geometry" />
        </mxCell>
        <mxCell id="e7pmj6wEE7XBvEUKX5FL-4" value="Integración Escolar" style="shape=umlActor;verticalLabelPosition=bottom;verticalAlign=top;html=1;outlineConnect=0;" vertex="1" parent="1">
          <mxGeometry x="630" y="340" width="30" height="60" as="geometry" />
        </mxCell>
        <mxCell id="e7pmj6wEE7XBvEUKX5FL-20" style="edgeStyle=orthogonalEdgeStyle;rounded=1;orthogonalLoop=1;jettySize=auto;html=1;exitX=1;exitY=0.3333333333333333;exitDx=0;exitDy=0;exitPerimeter=0;entryX=0;entryY=0.5;entryDx=0;entryDy=0;fillColor=#dae8fc;strokeColor=#6c8ebf;curved=0;" edge="1" parent="1" source="e7pmj6wEE7XBvEUKX5FL-6" target="e7pmj6wEE7XBvEUKX5FL-16">
          <mxGeometry relative="1" as="geometry" />
        </mxCell>
        <mxCell id="e7pmj6wEE7XBvEUKX5FL-21" style="edgeStyle=orthogonalEdgeStyle;rounded=1;orthogonalLoop=1;jettySize=auto;html=1;exitX=1;exitY=0.3333333333333333;exitDx=0;exitDy=0;exitPerimeter=0;entryX=0;entryY=0.5;entryDx=0;entryDy=0;fillColor=#dae8fc;strokeColor=#6c8ebf;curved=0;" edge="1" parent="1" source="e7pmj6wEE7XBvEUKX5FL-6" target="e7pmj6wEE7XBvEUKX5FL-17">
          <mxGeometry relative="1" as="geometry" />
        </mxCell>
        <mxCell id="e7pmj6wEE7XBvEUKX5FL-22" style="edgeStyle=orthogonalEdgeStyle;rounded=1;orthogonalLoop=1;jettySize=auto;html=1;exitX=1;exitY=0.3333333333333333;exitDx=0;exitDy=0;exitPerimeter=0;entryX=0;entryY=0.5;entryDx=0;entryDy=0;fillColor=#dae8fc;strokeColor=#6c8ebf;curved=0;" edge="1" parent="1" source="e7pmj6wEE7XBvEUKX5FL-6" target="e7pmj6wEE7XBvEUKX5FL-18">
          <mxGeometry relative="1" as="geometry" />
        </mxCell>
        <mxCell id="e7pmj6wEE7XBvEUKX5FL-23" style="edgeStyle=orthogonalEdgeStyle;rounded=1;orthogonalLoop=1;jettySize=auto;html=1;exitX=1;exitY=0.3333333333333333;exitDx=0;exitDy=0;exitPerimeter=0;entryX=0;entryY=0.25;entryDx=0;entryDy=0;fillColor=#dae8fc;strokeColor=#6c8ebf;curved=0;" edge="1" parent="1" source="e7pmj6wEE7XBvEUKX5FL-6" target="e7pmj6wEE7XBvEUKX5FL-10">
          <mxGeometry relative="1" as="geometry" />
        </mxCell>
        <mxCell id="e7pmj6wEE7XBvEUKX5FL-44" style="edgeStyle=orthogonalEdgeStyle;rounded=1;orthogonalLoop=1;jettySize=auto;html=1;exitX=1;exitY=0.3333333333333333;exitDx=0;exitDy=0;exitPerimeter=0;entryX=0;entryY=0.25;entryDx=0;entryDy=0;fillColor=#dae8fc;strokeColor=#6c8ebf;curved=0;" edge="1" parent="1" source="e7pmj6wEE7XBvEUKX5FL-6" target="e7pmj6wEE7XBvEUKX5FL-11">
          <mxGeometry relative="1" as="geometry" />
        </mxCell>
        <mxCell id="e7pmj6wEE7XBvEUKX5FL-45" style="edgeStyle=orthogonalEdgeStyle;rounded=1;orthogonalLoop=1;jettySize=auto;html=1;exitX=1;exitY=0.3333333333333333;exitDx=0;exitDy=0;exitPerimeter=0;entryX=0;entryY=0.25;entryDx=0;entryDy=0;fillColor=#dae8fc;strokeColor=#6c8ebf;curved=0;" edge="1" parent="1" source="e7pmj6wEE7XBvEUKX5FL-6" target="e7pmj6wEE7XBvEUKX5FL-12">
          <mxGeometry relative="1" as="geometry" />
        </mxCell>
        <mxCell id="e7pmj6wEE7XBvEUKX5FL-46" style="edgeStyle=orthogonalEdgeStyle;rounded=1;orthogonalLoop=1;jettySize=auto;html=1;exitX=1;exitY=0.3333333333333333;exitDx=0;exitDy=0;exitPerimeter=0;entryX=0;entryY=0.75;entryDx=0;entryDy=0;fillColor=#dae8fc;strokeColor=#6c8ebf;curved=0;" edge="1" parent="1" source="e7pmj6wEE7XBvEUKX5FL-6" target="e7pmj6wEE7XBvEUKX5FL-13">
          <mxGeometry relative="1" as="geometry" />
        </mxCell>
        <mxCell id="e7pmj6wEE7XBvEUKX5FL-49" style="edgeStyle=orthogonalEdgeStyle;rounded=1;orthogonalLoop=1;jettySize=auto;html=1;exitX=1;exitY=0.3333333333333333;exitDx=0;exitDy=0;exitPerimeter=0;entryX=0;entryY=0.25;entryDx=0;entryDy=0;fillColor=#dae8fc;strokeColor=#6c8ebf;curved=0;" edge="1" parent="1" source="e7pmj6wEE7XBvEUKX5FL-6" target="e7pmj6wEE7XBvEUKX5FL-41">
          <mxGeometry relative="1" as="geometry" />
        </mxCell>
        <mxCell id="e7pmj6wEE7XBvEUKX5FL-6" value="Dirección" style="shape=umlActor;verticalLabelPosition=bottom;verticalAlign=top;html=1;outlineConnect=0;" vertex="1" parent="1">
          <mxGeometry x="80" y="140" width="30" height="60" as="geometry" />
        </mxCell>
        <mxCell id="e7pmj6wEE7XBvEUKX5FL-10" value="Crear Derivación" style="rounded=0;whiteSpace=wrap;html=1;" vertex="1" parent="1">
          <mxGeometry x="280" y="260" width="120" height="60" as="geometry" />
        </mxCell>
        <mxCell id="e7pmj6wEE7XBvEUKX5FL-11" value="Consultar Ficha Alumno" style="rounded=0;whiteSpace=wrap;html=1;" vertex="1" parent="1">
          <mxGeometry x="280" y="350" width="120" height="60" as="geometry" />
        </mxCell>
        <mxCell id="e7pmj6wEE7XBvEUKX5FL-12" value="Editar Ficha Alumno" style="rounded=0;whiteSpace=wrap;html=1;" vertex="1" parent="1">
          <mxGeometry x="280" y="420" width="120" height="60" as="geometry" />
        </mxCell>
        <mxCell id="e7pmj6wEE7XBvEUKX5FL-13" value="Crear Citación Apoderado" style="rounded=0;whiteSpace=wrap;html=1;" vertex="1" parent="1">
          <mxGeometry x="280" y="490" width="120" height="60" as="geometry" />
        </mxCell>
        <mxCell id="e7pmj6wEE7XBvEUKX5FL-16" value="Administrar Cuenta Usuarios" style="rounded=0;whiteSpace=wrap;html=1;" vertex="1" parent="1">
          <mxGeometry x="280" y="30" width="120" height="60" as="geometry" />
        </mxCell>
        <mxCell id="e7pmj6wEE7XBvEUKX5FL-17" value="Administrar BD Alumnos SIGE" style="rounded=0;whiteSpace=wrap;html=1;" vertex="1" parent="1">
          <mxGeometry x="280" y="100" width="120" height="60" as="geometry" />
        </mxCell>
        <mxCell id="e7pmj6wEE7XBvEUKX5FL-18" value="Generar Reportería Derivaciones" style="rounded=0;whiteSpace=wrap;html=1;" vertex="1" parent="1">
          <mxGeometry x="280" y="170" width="120" height="60" as="geometry" />
        </mxCell>
        <mxCell id="e7pmj6wEE7XBvEUKX5FL-41" value="Reasignar Derivación" style="rounded=0;whiteSpace=wrap;html=1;" vertex="1" parent="1">
          <mxGeometry x="280" y="600" width="120" height="60" as="geometry" />
        </mxCell>
      </root>
    </mxGraphModel>
  </diagram>
</mxfile>
